<svg width="444" height="218" viewBox="0 0 444 218" fill="none" xmlns="http://www.w3.org/2000/svg">
<path d="M1.35986 3.36051C34.8656 21.7558 61.0459 62.9008 82.3281 93.096C117.273 142.677 151.029 202.925 216.416 215.425C233.547 218.7 256.124 216.248 269.329 203.77C291.887 182.453 308.524 144.13 315.537 114.344C321.949 87.1129 326.406 56.0927 324.098 28.012C323.575 21.6481 321.16 14.0873 316.569 9.34288C302.926 -4.75513 286.942 0.883208 277.89 14.8095C261.868 39.4581 253.492 81.4052 272.01 106.814C305.064 152.167 347.499 191.059 405.892 194.177C414.591 194.642 460.301 200.223 436.526 181.491C425.905 173.123 423.582 173.685 434.566 182.625C438.507 185.834 441.431 188.795 437.248 193.146C430.01 200.673 428.377 202.937 428.377 213.156" stroke="white" stroke-linecap="round"/>
</svg>
