<svg width="61" height="54" viewBox="0 0 61 54" fill="none" xmlns="http://www.w3.org/2000/svg">
<g clip-path="url(#clip0_5_64)">
<path fill-rule="evenodd" clip-rule="evenodd" d="M17.7148 48.7141L25.5157 50.7648V48.0831L26.1525 47.4521H30.61V50.6069V52.8152H25.8341L19.9436 50.2914L17.7148 48.7141Z" fill="#CDBDB2"/>
<path fill-rule="evenodd" clip-rule="evenodd" d="M43.1865 48.7141L35.545 50.7648V48.0831L34.9082 47.4521H30.4507V50.6069V52.8152H35.2266L41.1168 50.2914L43.1865 48.7141Z" fill="#CDBDB2"/>
<path fill-rule="evenodd" clip-rule="evenodd" d="M26.1524 42.8782L25.5156 48.0834L26.3115 47.4524H34.5898L35.545 48.0834L34.9082 42.8782L33.6346 42.0894L27.2667 42.2472L26.1524 42.8782Z" fill="#393939"/>
<path fill-rule="evenodd" clip-rule="evenodd" d="M21.8535 7.70215L25.6743 16.5355L27.4256 42.2469H33.6342L35.5445 16.5355L39.0469 7.70215H21.8535Z" fill="#F89C35"/>
<path fill-rule="evenodd" clip-rule="evenodd" d="M5.13821 27.1042L0.680664 39.8809L11.8245 39.2499H18.9883V33.7292L18.6699 22.3721L17.0779 23.634L5.13821 27.1042Z" fill="#F89D35"/>
<path fill-rule="evenodd" clip-rule="evenodd" d="M13.5752 28.5239L26.6294 28.8394L25.1968 35.4644L18.9879 33.887L13.5752 28.5239Z" fill="#D87C30"/>
<path fill-rule="evenodd" clip-rule="evenodd" d="M13.5752 28.6816L18.9879 33.7293V38.7769L13.5752 28.6816Z" fill="#EA8D3A"/>
<path fill-rule="evenodd" clip-rule="evenodd" d="M18.9883 33.8867L25.3562 35.4641L27.4259 42.247L25.993 43.0355L18.9883 38.9343V33.8867Z" fill="#F89D35"/>
<path fill-rule="evenodd" clip-rule="evenodd" d="M18.9884 38.9346L17.7148 48.7143L26.1525 42.8782L18.9884 38.9346Z" fill="#EB8F35"/>
<path fill-rule="evenodd" clip-rule="evenodd" d="M26.6301 28.8394L27.4262 42.2472L25.0381 35.3856L26.6301 28.8394Z" fill="#EA8E3A"/>
<path fill-rule="evenodd" clip-rule="evenodd" d="M11.665 39.0924L18.9882 38.9346L17.7146 48.7143L11.665 39.0924Z" fill="#D87C30"/>
<path fill-rule="evenodd" clip-rule="evenodd" d="M4.18302 52.9732L17.7147 48.7142L11.6652 39.0923L0.680664 39.8808L4.18302 52.9732Z" fill="#EB8F35"/>
<path fill-rule="evenodd" clip-rule="evenodd" d="M25.6743 16.5356L18.8289 22.2142L13.5752 28.5237L26.6294 28.9971L25.6743 16.5356Z" fill="#E8821E"/>
<path fill-rule="evenodd" clip-rule="evenodd" d="M17.7148 48.7141L26.1525 42.8779L25.5157 47.9255V50.7648L19.7846 49.6605L17.7148 48.7141Z" fill="#DFCEC3"/>
<path fill-rule="evenodd" clip-rule="evenodd" d="M43.1865 48.7141L34.9082 42.8779L35.545 47.9255V50.7648L41.2761 49.6605L43.1865 48.7141Z" fill="#DFCEC3"/>
<path fill-rule="evenodd" clip-rule="evenodd" d="M23.1276 31.6782L24.8789 35.3063L18.67 33.729L23.1276 31.6782Z" fill="#393939"/>
<path fill-rule="evenodd" clip-rule="evenodd" d="M4.02344 0.288574L25.6744 16.5355L22.013 7.70212L4.02344 0.288574Z" fill="#E88F35"/>
<path fill-rule="evenodd" clip-rule="evenodd" d="M4.02377 0.288574L1.1582 8.96417L2.75018 18.4285L1.6358 19.0594L3.22778 20.479L1.95419 21.5832L3.70537 23.1606L2.59099 24.107L5.13816 27.2618L17.078 23.6338C22.9153 19.0068 25.7808 16.6408 25.6747 16.5356C25.5686 16.4304 18.3516 11.0148 4.02377 0.288574Z" fill="#8E5A30"/>
<path fill-rule="evenodd" clip-rule="evenodd" d="M55.7632 27.1042L60.2207 39.8809L49.0768 39.2499H41.9131V33.7292L42.2315 22.3721L43.8234 23.634L55.7632 27.1042Z" fill="#F89D35"/>
<path fill-rule="evenodd" clip-rule="evenodd" d="M47.3262 28.5239L34.2719 28.8394L35.7046 35.4644L41.9134 33.887L47.3262 28.5239Z" fill="#D87C30"/>
<path fill-rule="evenodd" clip-rule="evenodd" d="M47.3262 28.6816L41.9134 33.7293V38.7769L47.3262 28.6816Z" fill="#EA8D3A"/>
<path fill-rule="evenodd" clip-rule="evenodd" d="M41.9131 33.8867L35.5452 35.4641L33.4754 42.247L34.9084 43.0355L41.9131 38.9343V33.8867Z" fill="#F89D35"/>
<path fill-rule="evenodd" clip-rule="evenodd" d="M41.9129 38.9346L43.1865 48.7143L34.9082 43.0358L41.9129 38.9346Z" fill="#EB8F35"/>
<path fill-rule="evenodd" clip-rule="evenodd" d="M34.2713 28.8394L33.4752 42.2472L35.8633 35.3856L34.2713 28.8394Z" fill="#EA8E3A"/>
<path fill-rule="evenodd" clip-rule="evenodd" d="M49.2363 39.0924L41.9132 38.9346L43.1868 48.7143L49.2363 39.0924Z" fill="#D87C30"/>
<path fill-rule="evenodd" clip-rule="evenodd" d="M56.7183 52.9732L43.1867 48.7142L49.2362 39.0923L60.2207 39.8808L56.7183 52.9732Z" fill="#EB8F35"/>
<path fill-rule="evenodd" clip-rule="evenodd" d="M35.2271 16.5356L42.0725 22.2142L47.3262 28.5237L34.2719 28.9971L35.2271 16.5356Z" fill="#E8821E"/>
<path fill-rule="evenodd" clip-rule="evenodd" d="M37.7738 31.6782L36.0225 35.3063L42.2313 33.729L37.7738 31.6782Z" fill="#393939"/>
<path fill-rule="evenodd" clip-rule="evenodd" d="M56.8779 0.288574L35.227 16.5355L38.8884 7.70212L56.8779 0.288574Z" fill="#E88F35"/>
<path fill-rule="evenodd" clip-rule="evenodd" d="M56.8776 0.288574L59.7432 8.96417L58.1512 18.4285L59.2656 19.0594L57.6736 20.479L58.9472 21.5832L57.196 23.1606L58.3104 24.107L55.7632 27.2618L43.8234 23.6338C37.9861 19.0068 35.1205 16.6408 35.2267 16.5356C35.3328 16.4304 42.5498 11.0148 56.8776 0.288574Z" fill="#8E5A30"/>
</g>
<defs>
<clipPath id="clip0_5_64">
<rect width="60" height="53" fill="white" transform="translate(0.521484 0.130859)"/>
</clipPath>
</defs>
</svg>
