<svg width="98" height="80" fill="none" xmlns="http://www.w3.org/2000/svg"><path stroke="#fff" stroke-width="1.506" d="M2.843 44.221H95.65v16.703H2.843zM33.435 23.49v18.615M49.247 30.611v18.613M65.059 39.917V58.53"/><path d="M33.742 18.996c-.954 0-1.813-.213-2.579-.64a4.805 4.805 0 0 1-1.807-1.807c-.44-.765-.659-1.631-.659-2.597 0-.967.22-1.832.659-2.598a4.67 4.67 0 0 1 1.807-1.788c.766-.427 1.625-.64 2.579-.64.954 0 1.813.213 2.579.64a4.54 4.54 0 0 1 1.788 1.788c.44.766.659 1.631.659 2.598 0 .966-.22 1.832-.659 2.597a4.669 4.669 0 0 1-1.788 1.807c-.766.427-1.625.64-2.579.64zm0-1.185c.703 0 1.33-.157 1.882-.471a3.392 3.392 0 0 0 1.318-1.374c.314-.59.47-1.261.47-2.014 0-.753-.156-1.425-.47-2.014a3.268 3.268 0 0 0-1.318-1.356c-.552-.326-1.18-.49-1.882-.49a3.73 3.73 0 0 0-1.901.49 3.426 3.426 0 0 0-1.318 1.356c-.314.59-.47 1.26-.47 2.014 0 .753.156 1.424.47 2.014.326.59.766 1.048 1.318 1.374.565.314 1.198.47 1.901.47z" fill="#fff"/><path opacity=".8" d="M11.09 67.29v8.387h-.73V68.69l-3.457 5.885h-.358l-3.456-5.81v6.912h-.73V67.29H3l3.74 6.346 3.695-6.346h.655zm8.44 6.063h-4.872l-1.072 2.324h-.76l3.888-8.387h.745l3.904 8.387h-.775l-1.058-2.324zm-.298-.625-2.145-4.678-2.145 4.678h4.29zm9.729 2.95-1.997-2.757c-.238.03-.486.045-.744.045h-2.37v2.711h-.744V67.29h3.113c1.073 0 1.912.253 2.518.76.616.496.924 1.191.924 2.085 0 .656-.174 1.212-.521 1.669-.338.447-.825.77-1.46.968l2.115 2.905h-.834zM26.19 72.34c.884 0 1.554-.189 2.01-.566.468-.387.701-.933.701-1.639 0-.705-.233-1.246-.7-1.624-.457-.377-1.127-.566-2.011-.566h-2.34v4.395h2.34zm8.717-.7-1.832 1.847v2.19h-.745V67.29h.745v5.244l5.17-5.244h.878l-3.694 3.814 3.947 4.573h-.908l-3.56-4.037zm12.27 3.397v.64h-5.929V67.29h5.75v.655h-5.005v3.159h4.47v.64h-4.47v3.293h5.185zm3.896-7.092h-3.04v-.655h6.824v.655h-3.039v7.732h-.745v-7.732zm8.623-.655c1.073 0 1.912.253 2.518.76.616.496.924 1.191.924 2.085 0 .894-.308 1.594-.924 2.1-.606.498-1.445.746-2.518.746h-2.368v2.696h-.745V67.29h3.113zm-.03 5.05c.885 0 1.555-.189 2.012-.566.467-.387.7-.933.7-1.639 0-.705-.233-1.246-.7-1.624-.457-.377-1.127-.566-2.011-.566h-2.34v4.395h2.34zm6.039-5.05h.745v7.747h4.827v.64h-5.572V67.29zm12.486 6.063H73.32l-1.072 2.324h-.76l3.888-8.387h.745l3.903 8.387h-.774l-1.058-2.324zm-.298-.625-2.145-4.678-2.145 4.678h4.29zm7.26 3.024c-.835 0-1.59-.184-2.265-.551a4.226 4.226 0 0 1-1.595-1.535 4.224 4.224 0 0 1-.58-2.19c0-.794.193-1.514.58-2.16a4.083 4.083 0 0 1 1.595-1.535c.675-.377 1.43-.566 2.264-.566.636 0 1.212.1 1.728.298.527.199.974.492 1.341.88l-.477.506c-.675-.676-1.534-1.013-2.577-1.013-.695 0-1.326.159-1.892.477a3.493 3.493 0 0 0-1.326 1.28 3.577 3.577 0 0 0-.477 1.833c0 .675.16 1.291.477 1.847.328.547.77.979 1.326 1.297a3.895 3.895 0 0 0 1.892.462c1.043 0 1.902-.338 2.577-1.014l.477.492c-.377.387-.83.685-1.356.894a4.735 4.735 0 0 1-1.713.298zm11.272-.715v.64h-5.929V67.29h5.75v.655h-5.005v3.159h4.47v.64h-4.47v3.293h5.184z" fill="#fff"/><path d="M65.755 35.553c-.979 0-1.857-.213-2.635-.64a4.67 4.67 0 0 1-1.807-1.788c-.44-.778-.66-1.65-.66-2.617 0-.966.22-1.832.66-2.597a4.67 4.67 0 0 1 1.807-1.789c.778-.426 1.656-.64 2.635-.64.854 0 1.613.17 2.278.509.677.326 1.21.809 1.6 1.449l-.998.678a3.052 3.052 0 0 0-1.242-1.092 3.612 3.612 0 0 0-1.638-.377 3.87 3.87 0 0 0-1.939.49 3.39 3.39 0 0 0-1.336 1.355c-.314.59-.47 1.261-.47 2.014 0 .766.156 1.443.47 2.033a3.556 3.556 0 0 0 1.336 1.356c.578.313 1.224.47 1.94.47.589 0 1.135-.12 1.637-.358a3.05 3.05 0 0 0 1.242-1.091l.998.677a3.848 3.848 0 0 1-1.6 1.469c-.678.326-1.437.489-2.278.489zM48.782 17.803h-3.334v-.867h7.671v.867h-3.334v8.62h-1.003v-8.62z" fill="#fff"/></svg>